<svg width="10" height="10" viewBox="0 0 10 10" fill="none" xmlns="http://www.w3.org/2000/svg">
<g id="Edit / Add_Plus_Circle" clip-path="url(#clip0_1202_2192)">
<path id="Vector" d="M3.33333 4.65C3.14003 4.65 2.98333 4.8067 2.98333 5C2.98333 5.1933 3.14003 5.35 3.33333 5.35V4.65ZM6.66667 5.35C6.85997 5.35 7.01667 5.1933 7.01667 5C7.01667 4.8067 6.85997 4.65 6.66667 4.65V5.35ZM4.65 6.66667C4.65 6.85997 4.8067 7.01667 5 7.01667C5.1933 7.01667 5.35 6.85997 5.35 6.66667H4.65ZM5.35 3.33333C5.35 3.14003 5.1933 2.98333 5 2.98333C4.8067 2.98333 4.65 3.14003 4.65 3.33333H5.35ZM5 8.4C3.12223 8.4 1.6 6.87777 1.6 5H0.9C0.9 7.26437 2.73563 9.1 5 9.1V8.4ZM1.6 5C1.6 3.12223 3.12223 1.6 5 1.6V0.9C2.73563 0.9 0.9 2.73563 0.9 5H1.6ZM5 1.6C6.87777 1.6 8.4 3.12223 8.4 5H9.1C9.1 2.73563 7.26437 0.9 5 0.9V1.6ZM8.4 5C8.4 6.87777 6.87777 8.4 5 8.4V9.1C7.26437 9.1 9.1 7.26437 9.1 5H8.4ZM3.33333 5.35H6.66667V4.65H3.33333V5.35ZM5.35 6.66667V3.33333H4.65V6.66667H5.35Z" fill="#9AA6AC"/>
</g>
<defs>
<clipPath id="clip0_1202_2192">
<rect width="10" height="10" fill="white"/>
</clipPath>
</defs>
</svg>
