<svg width="20" height="20" viewBox="0 0 20 20" fill="none" xmlns="http://www.w3.org/2000/svg">
<g id="Calendar / Calendar_Event">
<path id="Vector" d="M3.3335 6.1665C3.05735 6.1665 2.8335 6.39036 2.8335 6.6665C2.8335 6.94265 3.05735 7.1665 3.3335 7.1665V6.1665ZM16.6668 7.1665C16.943 7.1665 17.1668 6.94265 17.1668 6.6665C17.1668 6.39036 16.943 6.1665 16.6668 6.1665V7.1665ZM4.24333 16.4848L4.47032 16.0393L4.24333 16.4848ZM3.51515 15.7565L3.06965 15.9835H3.06965L3.51515 15.7565ZM16.4854 15.7565L16.0398 15.5295L16.4854 15.7565ZM15.7566 16.4848L15.5297 16.0393L15.7566 16.4848ZM15.7566 3.51483L15.9836 3.06932L15.7566 3.51483ZM16.4854 4.2432L16.0398 4.4702V4.4702L16.4854 4.2432ZM4.24333 3.51483L4.47032 3.96033L4.24333 3.51483ZM3.51515 4.2432L3.96066 4.4702L3.51515 4.2432ZM13.8335 1.6665C13.8335 1.39036 13.6096 1.1665 13.3335 1.1665C13.0574 1.1665 12.8335 1.39036 12.8335 1.6665H13.8335ZM12.8335 3.33317C12.8335 3.60931 13.0574 3.83317 13.3335 3.83317C13.6096 3.83317 13.8335 3.60931 13.8335 3.33317H12.8335ZM7.16683 1.6665C7.16683 1.39036 6.94297 1.1665 6.66683 1.1665C6.39069 1.1665 6.16683 1.39036 6.16683 1.6665H7.16683ZM6.16683 3.33317C6.16683 3.60931 6.39069 3.83317 6.66683 3.83317C6.94297 3.83317 7.16683 3.60931 7.16683 3.33317H6.16683ZM3.3335 7.1665H16.6668V6.1665H3.3335V7.1665ZM6.00033 3.83317H14.0003V2.83317H6.00033V3.83317ZM16.1668 5.9998V13.9998H17.1668V5.9998H16.1668ZM14.0003 16.1665H6.00033V17.1665H14.0003V16.1665ZM3.8335 13.9998V5.9998H2.8335V13.9998H3.8335ZM6.00033 16.1665C5.52538 16.1665 5.19913 16.1661 4.9462 16.1454C4.69908 16.1253 4.56633 16.0882 4.47032 16.0393L4.01633 16.9303C4.27685 17.0631 4.55588 17.1169 4.86477 17.1421C5.16786 17.1669 5.54185 17.1665 6.00033 17.1665V16.1665ZM2.8335 13.9998C2.8335 14.4583 2.83311 14.8322 2.85786 15.1352C2.8831 15.4441 2.93692 15.723 3.06965 15.9835L3.96066 15.5295C3.91173 15.4335 3.87472 15.3008 3.85454 15.0538C3.83388 14.8009 3.8335 14.4748 3.8335 13.9998H2.8335ZM4.47032 16.0393C4.25088 15.9275 4.07255 15.7491 3.96066 15.5295L3.06965 15.9835C3.27734 16.3911 3.60857 16.7226 4.01633 16.9303L4.47032 16.0393ZM16.1668 13.9998C16.1668 14.4748 16.1665 14.801 16.1459 15.0539C16.1257 15.3009 16.0887 15.4336 16.0398 15.5295L16.9309 15.9835C17.0636 15.723 17.1174 15.444 17.1426 15.1351C17.1673 14.8321 17.1668 14.4582 17.1668 13.9998H16.1668ZM14.0003 17.1665C14.4588 17.1665 14.8326 17.1669 15.1356 17.1421C15.4444 17.1169 15.7232 17.063 15.9836 16.9303L15.5297 16.0393C15.4336 16.0883 15.301 16.1253 15.0541 16.1454C14.8013 16.1661 14.4753 16.1665 14.0003 16.1665V17.1665ZM16.0398 15.5295C15.9281 15.7488 15.7494 15.9273 15.5297 16.0393L15.9836 16.9303C16.3911 16.7227 16.723 16.3915 16.9309 15.9835L16.0398 15.5295ZM14.0003 3.83317C14.4753 3.83317 14.8014 3.83356 15.0541 3.85422C15.301 3.87439 15.4336 3.91139 15.5297 3.96033L15.9836 3.06932C15.7232 2.93661 15.4444 2.88278 15.1356 2.85754C14.8326 2.83278 14.4588 2.83317 14.0003 2.83317V3.83317ZM17.1668 5.9998C17.1668 5.54139 17.1673 5.16748 17.1426 4.86452C17.1174 4.55572 17.0636 4.27675 16.9309 4.01621L16.0398 4.4702C16.0887 4.56617 16.1257 4.6988 16.1459 4.9458C16.1665 5.19865 16.1668 5.52478 16.1668 5.9998H17.1668ZM15.5297 3.96033C15.7494 4.07229 15.9281 4.25088 16.0398 4.4702L16.9309 4.01621C16.723 3.60832 16.3911 3.27694 15.9836 3.06932L15.5297 3.96033ZM6.00033 2.83317C5.54186 2.83317 5.16787 2.83278 4.86478 2.85754C4.5559 2.88277 4.27685 2.93658 4.01633 3.06932L4.47032 3.96033C4.56632 3.91142 4.69906 3.8744 4.94619 3.85422C5.19912 3.83356 5.52537 3.83317 6.00033 3.83317V2.83317ZM3.8335 5.9998C3.8335 5.52483 3.83389 5.1987 3.85454 4.94588C3.87472 4.6989 3.91172 4.56623 3.96066 4.4702L3.06965 4.01621C2.93692 4.2767 2.8831 4.55561 2.85786 4.86444C2.83311 5.16743 2.8335 5.54134 2.8335 5.9998H3.8335ZM4.01633 3.06932C3.60852 3.27711 3.27731 3.60865 3.06965 4.01621L3.96066 4.4702C4.07257 4.25055 4.25093 4.07212 4.47032 3.96033L4.01633 3.06932ZM9.79183 13.8332C10.183 13.8332 10.5002 13.516 10.5002 13.1248H9.50016C9.50016 12.9638 9.63075 12.8332 9.79183 12.8332V13.8332ZM10.5002 13.1248V10.2082H9.50016V13.1248H10.5002ZM10.5002 10.2082C10.5002 9.81697 10.183 9.49984 9.79183 9.49984V10.4998C9.63075 10.4998 9.50016 10.3693 9.50016 10.2082H10.5002ZM9.79183 9.49984H6.87516V10.4998H9.79183V9.49984ZM6.87516 9.49984C6.48396 9.49984 6.16683 9.81697 6.16683 10.2082H7.16683C7.16683 10.3693 7.03625 10.4998 6.87516 10.4998V9.49984ZM6.16683 10.2082V13.1248H7.16683V10.2082H6.16683ZM6.16683 13.1248C6.16683 13.516 6.48396 13.8332 6.87516 13.8332V12.8332C7.03625 12.8332 7.16683 12.9638 7.16683 13.1248H6.16683ZM6.87516 13.8332H9.79183V12.8332H6.87516V13.8332ZM12.8335 1.6665V3.33317H13.8335V1.6665H12.8335ZM6.16683 1.6665V3.33317H7.16683V1.6665H6.16683Z" fill="#0B0B0B"/>
</g>
</svg>
