<svg width="20" height="20" viewBox="0 0 20 20" fill="none" xmlns="http://www.w3.org/2000/svg">
<g id="File / File_Download">
<path id="Vector" d="M9.99984 10L9.99984 15M9.99984 15L12.4998 13.3333M9.99984 15L7.49984 13.3333M15.8333 7.5H13.5C12.5666 7.5 12.0995 7.49997 11.743 7.31832C11.4294 7.15853 11.1746 6.90358 11.0148 6.58997C10.8332 6.23345 10.8332 5.76675 10.8332 4.83333V2.5M15.8332 14.8333V7.77125C15.8332 7.3636 15.8328 7.15974 15.7868 6.96793C15.746 6.79787 15.6788 6.63531 15.5874 6.48619C15.4843 6.318 15.3406 6.17387 15.0523 5.88562L12.4478 3.28105C12.1595 2.9928 12.0154 2.84869 11.8472 2.74562C11.698 2.65423 11.5355 2.58688 11.3655 2.54605C11.1737 2.5 10.9698 2.5 10.5621 2.5H6.83333C5.89991 2.5 5.43285 2.5 5.07633 2.68166C4.76273 2.84144 4.50795 3.09643 4.34816 3.41003C4.1665 3.76655 4.1665 4.23326 4.1665 5.16668V14.8333C4.1665 15.7668 4.1665 16.2335 4.34816 16.59C4.50795 16.9036 4.76273 17.1585 5.07633 17.3183C5.43285 17.5 5.89991 17.5 6.83333 17.5H13.1667C14.1001 17.5 14.5665 17.5 14.923 17.3183C15.2366 17.1585 15.4919 16.9036 15.6517 16.59C15.8333 16.2335 15.8332 15.7668 15.8332 14.8333Z" stroke="#0B0B0B" stroke-width="0.7" stroke-linecap="round" stroke-linejoin="round"/>
</g>
</svg>
