<svg width="20" height="20" viewBox="0 0 20 20" fill="none" xmlns="http://www.w3.org/2000/svg">
<g id="Interface / Suitcase">
<path id="Vector" d="M13.3333 6.66683C13.3333 4.82588 11.8409 3.3335 10 3.3335C8.15905 3.3335 6.66667 4.82588 6.66667 6.66683M17.5 9.33346V14.0001C17.5 14.9335 17.5002 15.4003 17.3185 15.7569C17.1587 16.0705 16.9034 16.3254 16.5898 16.4851C16.2333 16.6668 15.7669 16.6668 14.8335 16.6668H5.16683C4.23341 16.6668 3.76635 16.6668 3.40983 16.4851C3.09623 16.3254 2.84144 16.0705 2.68166 15.7569C2.5 15.4003 2.5 14.9335 2.5 14.0001V9.33346C2.5 8.40003 2.5 7.93338 2.68166 7.57686C2.84144 7.26326 3.09623 7.00827 3.40983 6.84849C3.76635 6.66683 4.23341 6.66683 5.16683 6.66683H14.8335C15.7669 6.66683 16.2333 6.66683 16.5898 6.84849C16.9034 7.00827 17.1587 7.26326 17.3185 7.57686C17.5002 7.93338 17.5 8.40003 17.5 9.33346Z" stroke="#0B0B0B" stroke-linecap="round" stroke-linejoin="round"/>
</g>
</svg>
