<svg width="20" height="21" viewBox="0 0 20 21" fill="none" xmlns="http://www.w3.org/2000/svg">
<g id="Edit / Swatches_Palette">
<path id="Vector" d="M5.41665 17.9998H17.0588C17.3025 17.9998 17.5001 17.8023 17.5001 17.5587L17.5 12.6077M6.65038 17.7259L17.2018 12.8057C17.4226 12.7028 17.5181 12.4402 17.4151 12.2194L15.3227 7.7323C15.2197 7.51147 14.9571 7.41594 14.7363 7.51891L10.0252 9.71571M8.23484 15.8373C7.81793 17.3932 6.21861 18.3166 4.66267 17.8997C3.10672 17.4827 2.18318 15.8834 2.60009 14.3275L5.6133 3.08203C5.67636 2.84668 5.91816 2.70696 6.15352 2.77002L10.9358 4.05144C11.1712 4.11451 11.3109 4.35645 11.2478 4.5918L8.23484 15.8373ZM5.41665 15.1665H5.41832L5.41828 15.1681L5.41665 15.1681V15.1665Z" stroke="#0B0B0B" stroke-linecap="round" stroke-linejoin="round"/>
</g>
</svg>
