<svg width="20" height="20" viewBox="0 0 20 20" fill="none" xmlns="http://www.w3.org/2000/svg">
<g id="User / User_Square">
<path id="Vector" d="M14.1667 17.5C14.1667 15.1988 12.3012 13.3333 10 13.3333C7.69881 13.3333 5.83333 15.1988 5.83333 17.5M10 10.8333C8.61929 10.8333 7.5 9.71405 7.5 8.33333C7.5 6.95262 8.61929 5.83333 10 5.83333C11.3807 5.83333 12.5 6.95262 12.5 8.33333C12.5 9.71405 11.3807 10.8333 10 10.8333ZM17.5 5.16663V14.8333C17.5 15.7667 17.5002 16.2335 17.3185 16.59C17.1587 16.9036 16.9034 17.1585 16.5898 17.3183C16.2333 17.5 15.7669 17.5 14.8335 17.5H5.16683C4.23341 17.5 3.76635 17.5 3.40983 17.3183C3.09623 17.1585 2.84144 16.9036 2.68166 16.59C2.5 16.2335 2.5 15.7667 2.5 14.8333V5.16663C2.5 4.23321 2.5 3.76655 2.68166 3.41003C2.84144 3.09643 3.09623 2.84144 3.40983 2.68166C3.76635 2.5 4.23341 2.5 5.16683 2.5H14.8335C15.7669 2.5 16.2333 2.5 16.5898 2.68166C16.9034 2.84144 17.1587 3.09643 17.3185 3.41003C17.5002 3.76655 17.5 4.23321 17.5 5.16663Z" stroke="#0B0B0B" stroke-linecap="round" stroke-linejoin="round"/>
</g>
</svg>
